<svg width="21" height="21" xmlns="http://www.w3.org/2000/svg" xmlns:xlink="http://www.w3.org/1999/xlink" xml:space="preserve" overflow="hidden"><g transform="translate(-106 -363)"><path d="M110.856 374.441C110.856 374.441 110.769 375.337 110.856 376.409L110.9 376.847C110.966 377.831 112.016 378.269 112.847 378.181L113.284 378.138C114.116 378.072 114.75 377.328 114.684 376.497L114.641 376.059C114.553 374.987 114.269 374.112 114.269 374.112L110.856 374.441Z" fill="#8BC64E" fill-rule="evenodd"/><path d="M110.594 373.172 114.116 372.866C113.875 369.956 116.719 368.578 114.794 365.1 114.794 365.1 114.794 365.1 114.794 365.1 114.291 364.203 113.613 363.875 112.738 363.875 111.797 363.875 110.878 364.4 110.397 365.516 109.631 367.616 109.588 370.394 110.594 373.172Z" fill="#8BC64E" fill-rule="evenodd"/><path d="M122.144 379.362C122.144 379.362 122.231 380.259 122.144 381.331L122.1 381.769C122.034 382.753 120.984 383.191 120.153 383.103L119.716 383.059C118.884 382.994 118.25 382.25 118.316 381.419L118.359 380.981C118.447 379.909 118.731 379.034 118.731 379.034L122.144 379.362Z" fill="#8BC64E" fill-rule="evenodd"/><path d="M122.406 378.094 118.884 377.788C119.125 374.9 116.281 373.5 118.206 370.022 118.206 370.022 118.206 370.022 118.206 370.022 118.709 369.125 119.387 368.797 120.262 368.797 121.203 368.797 122.122 369.322 122.603 370.438 123.369 372.538 123.412 375.316 122.406 378.094Z" fill="#8BC64E" fill-rule="evenodd"/></g></svg>